<svg width="733" height="346" viewBox="0 0 733 346" fill="none" xmlns="http://www.w3.org/2000/svg">
<rect width="733" height="346" fill="#3F3D56"/>
<rect x="216" y="35" width="157" height="50" rx="12" fill="#B2B2EE" fill-opacity="0.28"/>
<rect x="216" y="258" width="157" height="50" rx="12" fill="#B2B2EE" fill-opacity="0.28"/>
<rect x="330" y="108" width="157" height="50" rx="12" fill="#B2B2EE" fill-opacity="0.28"/>
<rect x="402" y="182" width="157" height="50" rx="12" fill="#B2B2EE" fill-opacity="0.94"/>
<circle cx="193" cy="60" r="8" fill="#B2B2EE" fill-opacity="0.28"/>
<circle cx="302" cy="133" r="8" fill="#B2B2EE" fill-opacity="0.28"/>
<circle cx="381" cy="207" r="8" fill="#B2B2EE" fill-opacity="0.28"/>
<circle cx="193" cy="283" r="8" fill="#B2B2EE" fill-opacity="0.28"/>
<rect x="191" y="67" width="3" height="208" fill="#B2B2EE" fill-opacity="0.28"/>
<rect x="300" y="142" width="3" height="67" fill="#B2B2EE" fill-opacity="0.28"/>
<rect x="303" y="209" width="3" height="70" transform="rotate(-90 303 209)" fill="#B2B2EE" fill-opacity="0.28"/>
<rect x="233" y="52" width="97" height="2" rx="1" fill="#B2B2EE" fill-opacity="0.94"/>
<rect x="233" y="52" width="97" height="2" rx="1" fill="#B2B2EE" fill-opacity="0.94"/>
<rect x="233" y="65" width="54" height="2" rx="1" fill="#B2B2EE" fill-opacity="0.94"/>
<rect x="233" y="65" width="54" height="2" rx="1" fill="#B2B2EE" fill-opacity="0.94"/>
<rect x="347" y="125" width="97" height="2" rx="1" fill="#B2B2EE" fill-opacity="0.94"/>
<rect x="347" y="125" width="97" height="2" rx="1" fill="#B2B2EE" fill-opacity="0.94"/>
<rect x="347" y="138" width="54" height="2" rx="1" fill="#B2B2EE" fill-opacity="0.94"/>
<rect x="347" y="138" width="54" height="2" rx="1" fill="#B2B2EE" fill-opacity="0.94"/>
<rect x="233" y="274" width="97" height="2" rx="1" fill="#B2B2EE" fill-opacity="0.94"/>
<rect x="233" y="274" width="97" height="2" rx="1" fill="#B2B2EE" fill-opacity="0.94"/>
<rect x="233" y="287" width="54" height="2" rx="1" fill="#B2B2EE" fill-opacity="0.94"/>
<rect x="233" y="287" width="54" height="2" rx="1" fill="#B2B2EE" fill-opacity="0.94"/>
</svg>
